Input #0, mov,mp4,m4a,3gp,3g2,mj2, from '/home/hbattu/projects/huberman-gpt/huberman-audio/mp3/tmp_vkccpfh.mp4':
  Metadata:
    major_brand     : dash
    minor_version   : 0
    compatible_brands: iso6mp41
    creation_time   : 2021-11-24T08:46:10.000000Z
  Duration: 01:25:56.69, start: 0.000000, bitrate: 129 kb/s
    Stream #0:0(und): Audio: aac (LC) (mp4a / 0x6134706D), 44100 Hz, stereo, fltp, 0 kb/s (default)
    Metadata:
      creation_time   : 2021-11-24T08:46:10.000000Z
      handler_name    : ISO Media file produced by Google Inc.
Stream mapping:
  Stream #0:0 -> #0:0 (aac (native) -> mp3 (libmp3lame))
Press [q] to stop, [?] for help
[graph_0_in_0_0 @ 0x55bd6bc2a400] tb:1/44100 samplefmt:fltp samplerate:44100 chlayout:0x3
Output #0, mp3, to '../huberman-audio/mp3/KVjfFN89qvQ.mp3':
  Metadata:
    major_brand     : dash
    minor_version   : 0
    compatible_brands: iso6mp41
    TSSE            : Lavf58.29.100
    Stream #0:0(und): Audio: mp3 (libmp3lame), 44100 Hz, stereo, fltp, delay 1105 (default)
    Metadata:
      creation_time   : 2021-11-24T08:46:10.000000Z
      handler_name    : ISO Media file produced by Google Inc.
      encoder         : Lavc58.54.100 libmp3lame
No more output streams to write to, finishing.
size=   80574kB time=01:25:56.70 bitrate= 128.0kbits/s speed=97.5x    
[AVIOContext @ 0x55bd6bb1f900] Statistics: 0 seeks, 106 writeouts
video:0kB audio:80574kB subtitle:0kB other streams:0kB global headers:0kB muxing overhead: 0.000419%
Input file #0 (/home/hbattu/projects/huberman-gpt/huberman-audio/mp3/tmp_vkccpfh.mp4):
  Input stream #0:0 (audio): 222080 packets read (82507000 bytes); 222080 frames decoded (227409920 samples); 
  Total: 222080 packets (82507000 bytes) demuxed
Output file #0 (../huberman-audio/mp3/KVjfFN89qvQ.mp3):
  Output stream #0:0 (audio): 197405 frames encoded (227409920 samples); 197406 packets muxed (82507650 bytes); 
  Total: 197406 packets (82507650 bytes) muxed
[AVIOContext @ 0x55bd6bb45600] Statistics: 2 seeks, 316 writeouts
[AVIOContext @ 0x55bd6bb28880] Statistics: 83455956 bytes read, 0 seeks
